<?xml version="1.0" standalone="no"?>
<!DOCTYPE svg PUBLIC "-//W3C//DTD SVG 20010904//EN"
 "http://www.w3.org/TR/2001/REC-SVG-20010904/DTD/svg10.dtd">
<svg version="1.0" xmlns="http://www.w3.org/2000/svg"
 width="922.000000pt" height="772.000000pt" viewBox="0 0 922.000000 772.000000"
 preserveAspectRatio="xMidYMid meet">

<g transform="translate(0.000000,772.000000) scale(0.100000,-0.100000)"
fill="#000000" stroke="none">
<path d="M1635 7573 c-107 -6 -297 -33 -414 -59 -590 -132 -954 -473 -1036
-973 -23 -135 -16 -409 13 -551 95 -459 344 -960 731 -1475 921 -1224 2527
-2399 4166 -3048 1221 -484 2349 -619 3070 -370 243 84 423 198 564 356 80 91
109 133 159 232 258 516 101 1251 -446 2075 -492 742 -1267 1501 -2197 2151
-834 584 -1732 1043 -2610 1335 -755 251 -1417 359 -2000 327z m735 -148 c957
-107 2062 -518 3170 -1181 1179 -704 2204 -1629 2773 -2500 268 -411 419 -762
482 -1119 19 -106 22 -330 6 -428 -18 -107 -66 -244 -118 -337 -65 -115 -213
-263 -342 -342 -287 -175 -716 -257 -1196 -228 -500 30 -1007 138 -1595 342
-201 69 -622 236 -639 253 -2 3 34 45 80 96 l83 91 -108 536 c-59 296 -110
546 -114 558 -5 15 -69 53 -222 131 -200 102 -427 233 -560 323 l-56 38 -120
-594 -120 -595 -193 120 c-783 489 -1494 1073 -2042 1679 -723 799 -1111 1595
-1059 2175 24 272 115 466 299 640 225 212 520 318 1001 361 88 8 457 -4 590
-19z"/>
<path d="M2923 6749 c-340 -30 -558 -188 -628 -454 -21 -81 -21 -267 0 -370
56 -270 236 -631 463 -930 664 -871 1794 -1641 2742 -1868 221 -53 295 -62
505 -62 163 1 203 4 280 23 254 64 413 209 472 432 22 85 22 266 -1 375 -142
667 -848 1514 -1776 2132 -121 80 -263 167 -405 248 -165 94 -477 237 -679
310 -352 127 -711 187 -973 164z m444 -85 c599 -87 1383 -477 2038 -1013 296
-242 586 -534 795 -799 177 -226 342 -514 414 -719 135 -390 63 -687 -200
-825 -130 -69 -203 -83 -419 -83 -116 0 -219 5 -265 14 -181 32 -374 85 -545
148 -119 43 -394 164 -405 178 -6 7 -38 152 -72 323 l-62 309 -131 66 c-71 36
-177 95 -235 130 l-105 65 -47 -236 c-26 -129 -50 -237 -52 -240 -3 -2 -74 47
-158 110 -804 601 -1370 1325 -1469 1878 -15 89 -13 243 6 313 52 200 203 330
442 381 93 20 335 20 470 0z"/>
<path d="M3324 6215 c-109 -34 -180 -98 -210 -188 -23 -70 -15 -217 19 -312
83 -236 260 -488 523 -745 403 -392 897 -690 1323 -798 92 -23 126 -27 261
-27 150 0 157 1 218 29 140 65 202 195 173 362 -75 429 -592 1008 -1246 1395
-215 127 -515 248 -704 283 -99 19 -298 20 -357 1z m312 -26 c107 -15 246 -52
356 -95 785 -308 1593 -1115 1592 -1589 0 -69 -4 -88 -30 -135 -32 -61 -96
-111 -167 -132 -64 -19 -258 -15 -352 6 -94 22 -273 82 -366 124 l-66 30 -43
218 c-24 121 -47 220 -51 222 -3 2 -57 32 -118 67 -69 39 -114 59 -116 52 -2
-7 -18 -81 -34 -166 -17 -85 -33 -156 -35 -158 -1 -2 -40 23 -85 55 -331 237
-626 538 -791 807 -166 270 -191 501 -68 616 79 74 210 101 374 78z"/>
<path d="M3703 5941 c-64 -30 -85 -71 -80 -153 24 -381 857 -1036 1277 -1006
89 7 133 33 156 94 100 263 -514 878 -1047 1049 -115 37 -247 44 -306 16z
m278 -21 c235 -61 537 -249 768 -479 118 -117 188 -209 244 -320 37 -75 42
-92 42 -153 0 -66 -2 -71 -32 -98 -43 -38 -103 -54 -178 -45 -66 7 -216 54
-285 88 l-44 22 -55 272 c-31 150 -58 267 -62 260 -3 -6 -24 -101 -45 -209
-21 -109 -43 -198 -49 -198 -22 0 -230 166 -323 258 -288 287 -377 537 -217
608 44 19 150 17 236 -6z"/>
<path d="M3676 1973 c-14 -49 -327 -1636 -323 -1639 5 -5 1189 1191 1188 1201
0 3 -108 59 -238 125 -131 65 -323 166 -428 224 -104 58 -190 106 -192 106 -1
0 -4 -8 -7 -17z"/>
<path d="M4577 1172 l-238 -238 552 -400 c304 -219 555 -400 559 -402 8 -3
-206 1086 -218 1106 -6 11 -391 172 -411 172 -3 0 -113 -107 -244 -238z"/>
</g>
</svg>
